Coordinates
version=1
nRows=24
nColumns=24
inDegrees=yes

Units are S.I. units (second, meters, Newtons, ...)
Angles are in degrees.

endheader
time	pelvis_tilt	pelvis_list	pelvis_rotation	pelvis_tx	pelvis_ty	pelvis_tz	hip_flexion_r	hip_adduction_r	hip_rotation_r	knee_angle_r	ankle_angle_r	subtalar_angle_r	mtp_angle_r	hip_flexion_l	hip_adduction_l	hip_rotation_l	knee_angle_l	ankle_angle_l	subtalar_angle_l	mtp_angle_l	lumbar_extension	lumbar_bending	lumbar_rotation
      1.62000000	     21.92858503	     -8.10072731	      3.72228543	     -0.05215342	      0.90653419	     -0.01602783	     -0.85615645	      8.58386392	     -1.02084902	    -29.00118979	     11.43625372	    -14.63169215	     18.78213568	    -32.98647066	     -5.34272328	     24.61546172	      0.64923966	      0.71318829	    -42.12685161	     18.63871575	    -31.84191935	     10.03792599	      4.98772668
      1.62500000	     21.78806211	     -8.06732224	      3.71774504	     -0.04683639	      0.90559218	     -0.01583161	     -0.68144455	      8.64897705	     -0.21296650	    -26.76456594	     10.48704883	    -15.73434765	     19.41214327	    -33.12709653	     -5.26619599	     24.75972492	      0.42867828	      1.05151293	    -42.23050660	     18.45423583	    -31.76843075	     10.02659407	      4.99226869
      1.63000000	     21.76806220	     -7.94912937	      3.83925377	     -0.04147296	      0.90472108	     -0.01578626	     -0.69285034	      8.58928141	      0.37954901	    -24.44027672	      9.27992417	    -16.86250684	     22.16710173	    -33.40335466	     -5.18497935	     25.11186939	      0.23676133	      1.49469478	    -42.24648244	     17.77628087	    -31.79000878	      9.98603278	      4.79710108
      1.63500000	     21.75668698	     -7.91057416	      3.90339781	     -0.03605092	      0.90381897	     -0.01571277	     -0.80987390	      8.61401420	      1.26949088	    -21.98872935	      8.48944961	    -17.48203629	     21.99958907	    -33.72764907	     -5.15275810	     25.27111485	      0.11586406	      1.73584968	    -42.42705284	     17.70972734	    -31.81909209	     10.01237682	      4.67112794
      1.64000000	     21.60008103	     -7.81547922	      3.93488031	     -0.03063547	      0.90269556	     -0.01571082	     -0.79480487	      8.54936204	      2.29860913	    -19.49582922	      7.43061831	    -18.52765483	     21.93519816	    -33.86735545	     -5.04051889	     25.50034367	     -0.05632122	      2.01825970	    -42.60504879	     17.65572006	    -31.70746695	      9.98782992	      4.56092947
      1.64500000	     21.53144254	     -7.69509579	      4.00762970	     -0.02495403	      0.90161947	     -0.01558393	     -0.98127454	      8.44204430	      3.35615933	    -16.85171705	      6.36757180	    -19.52655233	     22.18047374	    -34.14236473	     -4.94137176	     25.70464032	     -0.19928790	      2.43768397	    -42.63051577	     17.51873564	    -31.63798781	      9.92443498	      4.44350527
      1.65000000	     21.39511980	     -7.52578147	      4.00226252	     -0.01930048	      0.90037365	     -0.01536689	     -1.11853981	      8.24314332	      4.62777075	    -14.20682389	      5.33575513	    -20.65628230	     22.61533706	    -34.30412863	     -4.73879203	     25.74043957	     -0.44304429	      2.89391764	    -42.51668081	     17.44198793	    -31.50034768	      9.77878800	      4.31313275
      1.65500000	     21.23872364	     -7.33575806	      4.02130694	     -0.01356076	      0.89908680	     -0.01516794	     -1.33945506	      7.98499913	      5.95200427	    -11.39457672	      4.17772707	    -21.72724808	     23.27944481	    -34.48878991	     -4.54768585	     25.93541363	     -0.58812422	      3.18813661	    -42.58520624	     17.32974999	    -31.35046878	      9.63465741	      4.19872017
      1.66000000	     21.03993617	     -7.07747593	      4.01067820	     -0.00784871	      0.89764754	     -0.01501589	     -1.51615850	      7.60642289	      7.30781501	     -8.64098923	      3.08599077	    -22.91989687	     24.20146550	    -34.56113517	     -4.24068016	     25.92762468	     -0.89290985	      3.69847200	    -42.28273554	     17.39230859	    -31.16293486	      9.42205624	      3.99511974
      1.66500000	     20.90261867	     -6.81499693	      4.01107090	     -0.00197500	      0.89625079	     -0.01490708	     -1.79834489	      7.15520102	      8.61335118	     -5.84579994	      1.79917970	    -24.24914260	     28.72819580	    -34.75977855	     -3.94748644	     25.99975698	     -1.07664210	      4.05135694	    -42.17776802	     17.38715469	    -30.99627434	      9.20172226	      3.75178431
      1.67000000	     20.72611018	     -6.51998765	      3.99379530	      0.00397035	      0.89473121	     -0.01469549	     -1.94246646	      6.64639199	      9.62360241	     -3.41356328	      1.25141168	    -24.18795324	     28.67653179	    -34.94438389	     -3.62084294	     26.15778523	     -1.20904047	      4.18358802	    -42.46269198	     17.40265254	    -30.77845840	      8.93525025	      3.60385922
      1.67500000	     20.45776281	     -6.20277395	      3.90696427	      0.00991652	      0.89311295	     -0.01444692	     -1.92260845	      6.09081992	     10.71379650	     -1.20045736	      0.62960599	    -24.57152253	     28.68458171	    -34.98556994	     -3.20706095	     26.31680477	     -1.45789651	      4.36483122	    -42.74323334	     17.47994150	    -30.50096722	      8.61330807	      3.51086627
      1.68000000	     20.25307883	     -5.89213969	      3.88146801	      0.01579370	      0.89160605	     -0.01441204	     -1.98857160	      5.51992597	     11.58100700	      1.00336034	     -0.11502101	    -25.01957524	     29.04031536	    -35.07873713	     -2.81779284	     26.51754823	     -1.72862674	      4.55991448	    -43.02196144	     17.60307284	    -30.27742765	      8.36475460	      3.42140305
      1.68500000	     20.06524459	     -5.50023296	      3.79976971	      0.02162354	      0.89011015	     -0.01439635	     -1.97947618	      4.85716628	     12.12621468	      2.89425937	     -0.36471204	    -24.55676086	     29.15650331	    -35.13697967	     -2.28749434	     26.54900550	     -2.12695405	      4.76740384	    -43.13303880	     17.64535314	    -30.07369243	      8.00176217	      3.23418736
      1.69000000	     19.84158040	     -5.15749979	      3.75359266	      0.02761547	      0.88855690	     -0.01424920	     -2.00173015	      4.24340434	     12.89821301	      4.84727080	     -1.33557910	    -25.40861618	     30.14718629	    -35.18599128	     -1.85381493	     26.56479150	     -2.48589041	      5.20586061	    -42.92491922	     17.90228157	    -29.82420730	      7.69906766	      3.11785307
      1.69500000	     19.69808940	     -4.79975765	      3.75515155	      0.03364914	      0.88714756	     -0.01410168	     -2.02519900	      3.65696177	     13.25602447	      6.47319031	     -1.53233625	    -25.00239608	     30.29282029	    -35.33553395	     -1.44463222	     26.63095808	     -2.80632645	      5.32416015	    -42.98932720	     17.93155236	    -29.64769026	      7.39023548	      2.88660350
      1.70000000	     19.58321591	     -4.50372511	      3.83038902	      0.03979813	      0.88577084	     -0.01394629	     -2.15054368	      3.16365253	     13.59410060	      8.13454178	     -2.42403186	    -25.79514343	     31.63308532	    -35.46410661	     -1.13360067	     26.58081245	     -3.24916351	      5.91098862	    -42.47969312	     18.32866391	    -29.48047912	      7.16851292	      2.70853091
      1.70500000	     19.39374169	     -4.22458358	      3.84693957	      0.04598266	      0.88441986	     -0.01355878	     -2.06701693	      2.75207785	     13.64892418	      9.34873061	     -2.64748293	    -25.48713918	     31.76176962	    -35.56462269	     -0.83983299	     26.51809529	     -3.55718061	      6.02805892	    -42.45305293	     18.38051152	    -29.23908389	      6.91572020	      2.53557513
      1.71000000	     19.36936748	     -4.07771035	      3.86734001	      0.05227115	      0.88332842	     -0.01311213	     -2.12791438	      2.54207010	     13.63908566	     10.31978299	     -3.09413242	    -25.87644423	     32.70137435	    -35.76358517	     -0.66330039	     25.85878058	     -4.09202618	      7.05197661	    -40.85609392	     19.02401345	    -29.16860211	      6.78544836	      2.42787278
      1.71500000	     19.32210068	     -3.96491271	      3.85624148	      0.05834237	      0.88228609	     -0.01263008	     -1.97829301	      2.45380497	     13.36278173	     10.70600440	     -3.18403594	    -25.77884504	     32.74925939	    -35.97618709	     -0.50205434	     25.64602189	     -4.48086151	      7.08879410	    -40.87578095	     19.04597029	    -29.09919048	      6.70113494	      2.42811756
      1.72000000	     19.36566030	     -3.97689577	      3.97651309	      0.06466295	      0.88148980	     -0.01212845	     -1.84579663	      2.58348065	     12.67964533	     10.69051893	     -2.86225602	    -24.82640143	     33.32943053	    -36.27552881	     -0.57909024	     25.18316973	     -4.92692699	      7.91310291	    -39.51636727	     19.63018965	    -29.07919327	      6.78007628	      2.34238945
      1.72500000	     19.32200583	     -4.04863610	      3.97685555	      0.07083001	      0.88064373	     -0.01133554	     -1.49733744	      2.80839367	     12.22024803	     10.29400270	     -2.57480696	    -24.10977173	     33.58247810	    -36.47007038	     -0.64766681	     24.56669354	     -5.36809234	      8.50498770	    -38.48481032	     20.10411318	    -29.00905955	      6.84912443	      2.42145817
      1.73000000	     19.48249558	     -4.13093004	      4.06313519	      0.07720204	      0.88006549	     -0.01071629	     -1.40161351	      3.08119244	     11.53363046	      9.74007643	     -2.04472180	    -23.13671207	     33.78455603	    -36.88690345	     -0.78562566	     23.95270967	     -5.80901041	      8.99374187	    -37.35765330	     20.61763592	    -29.12096495	      6.98755411	      2.40818206
      1.73500000	     19.54860835	     -4.14024068	      4.12800327	      0.08350320	      0.87935067	     -0.01011311	     -1.12114878	      3.25999028	     10.94674510	      8.85389800	     -1.29666735	    -22.09528209	     33.86168492	    -37.17257497	     -0.82713960	     23.58197727	     -6.31477975	      9.38796504	    -36.52093283	     21.08600514	    -29.14321811	      7.04680796	      2.30195552
